<svg xmlns="http://www.w3.org/2000/svg" xmlns:xlink="http://www.w3.org/1999/xlink" style="margin: auto; background: none; display: block; shape-rendering: auto;" width="207px" height="207px" viewBox="0 0 100 100" preserveAspectRatio="xMidYMid">
<g transform="rotate(0 50 50)">
  <rect x="44.5" y="23" rx="0" ry="0" width="11" height="22" fill="#b3c430">
    <animate attributeName="opacity" values="1;0" keyTimes="0;1" dur="0.9900990099009901s" begin="-0.9640437727983324s" repeatCount="indefinite"></animate>
  </rect>
</g><g transform="rotate(9.473684210526315 50 50)">
  <rect x="44.5" y="23" rx="0" ry="0" width="11" height="22" fill="#b3c430">
    <animate attributeName="opacity" values="1;0" keyTimes="0;1" dur="0.9900990099009901s" begin="-0.9379885356956748s" repeatCount="indefinite"></animate>
  </rect>
</g><g transform="rotate(18.94736842105263 50 50)">
  <rect x="44.5" y="23" rx="0" ry="0" width="11" height="22" fill="#b3c430">
    <animate attributeName="opacity" values="1;0" keyTimes="0;1" dur="0.9900990099009901s" begin="-0.9119332985930171s" repeatCount="indefinite"></animate>
  </rect>
</g><g transform="rotate(28.42105263157895 50 50)">
  <rect x="44.5" y="23" rx="0" ry="0" width="11" height="22" fill="#b3c430">
    <animate attributeName="opacity" values="1;0" keyTimes="0;1" dur="0.9900990099009901s" begin="-0.8858780614903595s" repeatCount="indefinite"></animate>
  </rect>
</g><g transform="rotate(37.89473684210526 50 50)">
  <rect x="44.5" y="23" rx="0" ry="0" width="11" height="22" fill="#b3c430">
    <animate attributeName="opacity" values="1;0" keyTimes="0;1" dur="0.9900990099009901s" begin="-0.8598228243877019s" repeatCount="indefinite"></animate>
  </rect>
</g><g transform="rotate(47.36842105263158 50 50)">
  <rect x="44.5" y="23" rx="0" ry="0" width="11" height="22" fill="#b3c430">
    <animate attributeName="opacity" values="1;0" keyTimes="0;1" dur="0.9900990099009901s" begin="-0.8337675872850442s" repeatCount="indefinite"></animate>
  </rect>
</g><g transform="rotate(56.8421052631579 50 50)">
  <rect x="44.5" y="23" rx="0" ry="0" width="11" height="22" fill="#b3c430">
    <animate attributeName="opacity" values="1;0" keyTimes="0;1" dur="0.9900990099009901s" begin="-0.8077123501823866s" repeatCount="indefinite"></animate>
  </rect>
</g><g transform="rotate(66.3157894736842 50 50)">
  <rect x="44.5" y="23" rx="0" ry="0" width="11" height="22" fill="#b3c430">
    <animate attributeName="opacity" values="1;0" keyTimes="0;1" dur="0.9900990099009901s" begin="-0.781657113079729s" repeatCount="indefinite"></animate>
  </rect>
</g><g transform="rotate(75.78947368421052 50 50)">
  <rect x="44.5" y="23" rx="0" ry="0" width="11" height="22" fill="#b3c430">
    <animate attributeName="opacity" values="1;0" keyTimes="0;1" dur="0.9900990099009901s" begin="-0.7556018759770713s" repeatCount="indefinite"></animate>
  </rect>
</g><g transform="rotate(85.26315789473684 50 50)">
  <rect x="44.5" y="23" rx="0" ry="0" width="11" height="22" fill="#b3c430">
    <animate attributeName="opacity" values="1;0" keyTimes="0;1" dur="0.9900990099009901s" begin="-0.7295466388744137s" repeatCount="indefinite"></animate>
  </rect>
</g><g transform="rotate(94.73684210526316 50 50)">
  <rect x="44.5" y="23" rx="0" ry="0" width="11" height="22" fill="#b3c430">
    <animate attributeName="opacity" values="1;0" keyTimes="0;1" dur="0.9900990099009901s" begin="-0.7034914017717561s" repeatCount="indefinite"></animate>
  </rect>
</g><g transform="rotate(104.21052631578948 50 50)">
  <rect x="44.5" y="23" rx="0" ry="0" width="11" height="22" fill="#b3c430">
    <animate attributeName="opacity" values="1;0" keyTimes="0;1" dur="0.9900990099009901s" begin="-0.6774361646690984s" repeatCount="indefinite"></animate>
  </rect>
</g><g transform="rotate(113.6842105263158 50 50)">
  <rect x="44.5" y="23" rx="0" ry="0" width="11" height="22" fill="#b3c430">
    <animate attributeName="opacity" values="1;0" keyTimes="0;1" dur="0.9900990099009901s" begin="-0.6513809275664408s" repeatCount="indefinite"></animate>
  </rect>
</g><g transform="rotate(123.15789473684211 50 50)">
  <rect x="44.5" y="23" rx="0" ry="0" width="11" height="22" fill="#b3c430">
    <animate attributeName="opacity" values="1;0" keyTimes="0;1" dur="0.9900990099009901s" begin="-0.6253256904637832s" repeatCount="indefinite"></animate>
  </rect>
</g><g transform="rotate(132.6315789473684 50 50)">
  <rect x="44.5" y="23" rx="0" ry="0" width="11" height="22" fill="#b3c430">
    <animate attributeName="opacity" values="1;0" keyTimes="0;1" dur="0.9900990099009901s" begin="-0.5992704533611255s" repeatCount="indefinite"></animate>
  </rect>
</g><g transform="rotate(142.10526315789474 50 50)">
  <rect x="44.5" y="23" rx="0" ry="0" width="11" height="22" fill="#b3c430">
    <animate attributeName="opacity" values="1;0" keyTimes="0;1" dur="0.9900990099009901s" begin="-0.5732152162584679s" repeatCount="indefinite"></animate>
  </rect>
</g><g transform="rotate(151.57894736842104 50 50)">
  <rect x="44.5" y="23" rx="0" ry="0" width="11" height="22" fill="#b3c430">
    <animate attributeName="opacity" values="1;0" keyTimes="0;1" dur="0.9900990099009901s" begin="-0.5471599791558103s" repeatCount="indefinite"></animate>
  </rect>
</g><g transform="rotate(161.05263157894737 50 50)">
  <rect x="44.5" y="23" rx="0" ry="0" width="11" height="22" fill="#b3c430">
    <animate attributeName="opacity" values="1;0" keyTimes="0;1" dur="0.9900990099009901s" begin="-0.5211047420531526s" repeatCount="indefinite"></animate>
  </rect>
</g><g transform="rotate(170.52631578947367 50 50)">
  <rect x="44.5" y="23" rx="0" ry="0" width="11" height="22" fill="#b3c430">
    <animate attributeName="opacity" values="1;0" keyTimes="0;1" dur="0.9900990099009901s" begin="-0.495049504950495s" repeatCount="indefinite"></animate>
  </rect>
</g><g transform="rotate(180 50 50)">
  <rect x="44.5" y="23" rx="0" ry="0" width="11" height="22" fill="#b3c430">
    <animate attributeName="opacity" values="1;0" keyTimes="0;1" dur="0.9900990099009901s" begin="-0.4689942678478374s" repeatCount="indefinite"></animate>
  </rect>
</g><g transform="rotate(189.47368421052633 50 50)">
  <rect x="44.5" y="23" rx="0" ry="0" width="11" height="22" fill="#b3c430">
    <animate attributeName="opacity" values="1;0" keyTimes="0;1" dur="0.9900990099009901s" begin="-0.44293903074517976s" repeatCount="indefinite"></animate>
  </rect>
</g><g transform="rotate(198.94736842105263 50 50)">
  <rect x="44.5" y="23" rx="0" ry="0" width="11" height="22" fill="#b3c430">
    <animate attributeName="opacity" values="1;0" keyTimes="0;1" dur="0.9900990099009901s" begin="-0.4168837936425221s" repeatCount="indefinite"></animate>
  </rect>
</g><g transform="rotate(208.42105263157896 50 50)">
  <rect x="44.5" y="23" rx="0" ry="0" width="11" height="22" fill="#b3c430">
    <animate attributeName="opacity" values="1;0" keyTimes="0;1" dur="0.9900990099009901s" begin="-0.3908285565398645s" repeatCount="indefinite"></animate>
  </rect>
</g><g transform="rotate(217.89473684210526 50 50)">
  <rect x="44.5" y="23" rx="0" ry="0" width="11" height="22" fill="#b3c430">
    <animate attributeName="opacity" values="1;0" keyTimes="0;1" dur="0.9900990099009901s" begin="-0.36477331943720687s" repeatCount="indefinite"></animate>
  </rect>
</g><g transform="rotate(227.3684210526316 50 50)">
  <rect x="44.5" y="23" rx="0" ry="0" width="11" height="22" fill="#b3c430">
    <animate attributeName="opacity" values="1;0" keyTimes="0;1" dur="0.9900990099009901s" begin="-0.3387180823345492s" repeatCount="indefinite"></animate>
  </rect>
</g><g transform="rotate(236.8421052631579 50 50)">
  <rect x="44.5" y="23" rx="0" ry="0" width="11" height="22" fill="#b3c430">
    <animate attributeName="opacity" values="1;0" keyTimes="0;1" dur="0.9900990099009901s" begin="-0.3126628452318916s" repeatCount="indefinite"></animate>
  </rect>
</g><g transform="rotate(246.31578947368422 50 50)">
  <rect x="44.5" y="23" rx="0" ry="0" width="11" height="22" fill="#b3c430">
    <animate attributeName="opacity" values="1;0" keyTimes="0;1" dur="0.9900990099009901s" begin="-0.28660760812923397s" repeatCount="indefinite"></animate>
  </rect>
</g><g transform="rotate(255.78947368421052 50 50)">
  <rect x="44.5" y="23" rx="0" ry="0" width="11" height="22" fill="#b3c430">
    <animate attributeName="opacity" values="1;0" keyTimes="0;1" dur="0.9900990099009901s" begin="-0.2605523710265763s" repeatCount="indefinite"></animate>
  </rect>
</g><g transform="rotate(265.2631578947368 50 50)">
  <rect x="44.5" y="23" rx="0" ry="0" width="11" height="22" fill="#b3c430">
    <animate attributeName="opacity" values="1;0" keyTimes="0;1" dur="0.9900990099009901s" begin="-0.2344971339239187s" repeatCount="indefinite"></animate>
  </rect>
</g><g transform="rotate(274.7368421052632 50 50)">
  <rect x="44.5" y="23" rx="0" ry="0" width="11" height="22" fill="#b3c430">
    <animate attributeName="opacity" values="1;0" keyTimes="0;1" dur="0.9900990099009901s" begin="-0.20844189682126105s" repeatCount="indefinite"></animate>
  </rect>
</g><g transform="rotate(284.2105263157895 50 50)">
  <rect x="44.5" y="23" rx="0" ry="0" width="11" height="22" fill="#b3c430">
    <animate attributeName="opacity" values="1;0" keyTimes="0;1" dur="0.9900990099009901s" begin="-0.18238665971860343s" repeatCount="indefinite"></animate>
  </rect>
</g><g transform="rotate(293.6842105263158 50 50)">
  <rect x="44.5" y="23" rx="0" ry="0" width="11" height="22" fill="#b3c430">
    <animate attributeName="opacity" values="1;0" keyTimes="0;1" dur="0.9900990099009901s" begin="-0.1563314226159458s" repeatCount="indefinite"></animate>
  </rect>
</g><g transform="rotate(303.1578947368421 50 50)">
  <rect x="44.5" y="23" rx="0" ry="0" width="11" height="22" fill="#b3c430">
    <animate attributeName="opacity" values="1;0" keyTimes="0;1" dur="0.9900990099009901s" begin="-0.13027618551328815s" repeatCount="indefinite"></animate>
  </rect>
</g><g transform="rotate(312.63157894736844 50 50)">
  <rect x="44.5" y="23" rx="0" ry="0" width="11" height="22" fill="#b3c430">
    <animate attributeName="opacity" values="1;0" keyTimes="0;1" dur="0.9900990099009901s" begin="-0.10422094841063052s" repeatCount="indefinite"></animate>
  </rect>
</g><g transform="rotate(322.10526315789474 50 50)">
  <rect x="44.5" y="23" rx="0" ry="0" width="11" height="22" fill="#b3c430">
    <animate attributeName="opacity" values="1;0" keyTimes="0;1" dur="0.9900990099009901s" begin="-0.0781657113079729s" repeatCount="indefinite"></animate>
  </rect>
</g><g transform="rotate(331.57894736842104 50 50)">
  <rect x="44.5" y="23" rx="0" ry="0" width="11" height="22" fill="#b3c430">
    <animate attributeName="opacity" values="1;0" keyTimes="0;1" dur="0.9900990099009901s" begin="-0.05211047420531526s" repeatCount="indefinite"></animate>
  </rect>
</g><g transform="rotate(341.05263157894734 50 50)">
  <rect x="44.5" y="23" rx="0" ry="0" width="11" height="22" fill="#b3c430">
    <animate attributeName="opacity" values="1;0" keyTimes="0;1" dur="0.9900990099009901s" begin="-0.02605523710265763s" repeatCount="indefinite"></animate>
  </rect>
</g><g transform="rotate(350.5263157894737 50 50)">
  <rect x="44.5" y="23" rx="0" ry="0" width="11" height="22" fill="#b3c430">
    <animate attributeName="opacity" values="1;0" keyTimes="0;1" dur="0.9900990099009901s" begin="0s" repeatCount="indefinite"></animate>
  </rect>
</g>
</svg>
