<svg xmlns="http://www.w3.org/2000/svg" xmlns:xlink="http://www.w3.org/1999/xlink" version="1.1" width="256" height="256" viewBox="0 0 256 256" xml:space="preserve">

<defs>
</defs>
<g style="stroke: none; stroke-width: 0; stroke-dasharray: none; stroke-linecap: butt; stroke-linejoin: miter; stroke-miterlimit: 10; fill: none; fill-rule: nonzero; opacity: 1;" transform="translate(1.4065934065934016 1.4065934065934016) scale(2.81 2.81)" >
	<circle cx="36.041" cy="48.541" r="26.021" style="stroke: none; stroke-width: 1; stroke-dasharray: none; stroke-linecap: butt; stroke-linejoin: miter; stroke-miterlimit: 10; fill: rgb(96,182,255); fill-rule: nonzero; opacity: 1;" transform="  matrix(1 0 0 1 0 0) "/>
	<path d="M 12.331 37.812 c 0.718 1.391 1.831 2.677 3.05 3.66 c 0.653 0.527 1.385 1.002 1.809 1.727 c 0.309 0.528 0.428 1.148 0.722 1.684 c 0.748 1.364 2.402 1.878 3.825 2.506 c 1.035 0.456 2.018 1.03 2.924 1.708 c 0.249 0.186 0.499 0.387 0.653 0.658 c 0.671 1.179 -0.817 2.466 -0.919 3.818 c -0.066 0.874 0.471 1.684 1.105 2.289 c 0.634 0.605 1.387 1.085 1.958 1.748 c 0.997 1.157 1.333 2.739 1.471 4.26 c 0.138 1.521 0.242 4.922 0.671 6.388 c 0.429 1.466 2.935 3.893 2.769 1.451 c -0.262 -1.314 -0.45 -2.884 0.524 -3.805 c 0.526 -0.497 1.278 -0.672 1.871 -1.086 c 1.678 -1.174 1.585 -3.791 3.01 -5.261 c 0.369 -0.381 0.828 -0.67 1.169 -1.075 c 0.686 -0.814 0.792 -1.953 0.869 -3.014 c 0.041 -0.572 0.076 -1.179 -0.195 -1.685 c -0.775 -1.449 -3.259 -0.948 -4.218 -2.282 c -0.37 -0.514 -0.418 -1.191 -0.687 -1.764 c -0.441 -0.938 -1.434 -1.503 -2.434 -1.773 c -1 -0.271 -2.049 -0.306 -3.064 -0.515 c -1.41 -0.29 -2.729 -0.91 -3.998 -1.59 c -1.315 -0.705 -2.761 -1.776 -2.691 -3.267 c 0.021 -0.448 0.204 -0.904 0.559 -1.178 c 0.535 -0.413 1.285 -0.322 1.96 -0.301 c 2.87 0.092 5.724 -1.581 7.046 -4.13 c 0.308 -0.593 0.561 -1.256 1.099 -1.652 c 0.327 -0.242 0.728 -0.357 1.111 -0.493 c 1.057 -0.373 2.05 -0.926 2.924 -1.629 c 0.171 -0.137 0.343 -0.289 0.424 -0.493 c 0.105 -0.264 0.036 -0.565 -0.074 -0.826 c -0.522 -1.244 -2.028 -1.982 -3.331 -1.632 c -0.873 0.234 -1.587 0.872 -2.442 1.167 c -0.855 0.295 -2.057 0.03 -2.229 -0.858 c -0.046 -0.235 -0.009 -0.478 0.039 -0.713 c 0.188 -0.92 0.549 -1.804 1.058 -2.592 c -2.444 -0.965 -5.875 -1.177 -8.468 -0.753 l -0.001 -0.002 c -2.127 1.339 -4.046 2.977 -5.699 4.855 C 14.812 33.28 13.4 35.452 12.331 37.812 z" style="stroke: none; stroke-width: 1; stroke-dasharray: none; stroke-linecap: butt; stroke-linejoin: miter; stroke-miterlimit: 10; fill: rgb(175,224,91); fill-rule: nonzero; opacity: 1;" transform=" matrix(1 0 0 1 0 0) " stroke-linecap="round" />
	<path d="M 55.024 66.34 c -1.523 -2.384 -2.974 -4.61 -2.918 -7.439 c 0.04 -2.033 0.936 -4.025 0.67 -6.041 c -0.041 -0.314 -0.115 -0.634 -0.301 -0.891 c -0.185 -0.257 -0.465 -0.428 -0.743 -0.58 c -1.431 -0.783 -3.032 -1.254 -4.659 -1.37 c -0.709 -0.05 -1.445 -0.039 -2.097 -0.323 c -1.236 -0.537 -1.819 -1.979 -1.958 -3.32 c -0.103 -1.002 -0.009 -2.075 0.564 -2.904 c 0.6 -0.867 1.646 -1.339 2.691 -1.479 c 1.044 -0.14 2.104 0.011 3.147 0.163 c 0.946 0.137 1.892 0.275 2.838 0.412 c 1.327 0.192 2.831 0.339 3.865 -0.515 c 0.737 -0.609 1.052 -1.682 0.76 -2.592 s -1.17 -1.601 -2.123 -1.669 c -0.757 -0.054 -1.489 0.248 -2.197 0.522 c -1.495 0.578 -3.029 1.055 -4.588 1.426 c -0.348 0.083 -0.728 0.158 -1.053 0.008 c -0.449 -0.207 -0.615 -0.75 -0.732 -1.23 c -0.186 -0.766 -0.369 -1.591 -0.077 -2.323 c 0.428 -1.072 1.665 -1.513 2.671 -2.079 s 1.962 -1.782 1.376 -2.776 c -0.193 -0.327 -0.518 -0.549 -0.772 -0.831 c -0.895 -0.993 0.152 -2.776 1.282 -3.489 l -0.077 -0.053 c 6.922 4.676 11.472 12.595 11.472 21.577 C 62.064 55.427 59.39 61.687 55.024 66.34 L 55.024 66.34 z" style="stroke: none; stroke-width: 1; stroke-dasharray: none; stroke-linecap: butt; stroke-linejoin: miter; stroke-miterlimit: 10; fill: rgb(175,224,91); fill-rule: nonzero; opacity: 1;" transform=" matrix(1 0 0 1 0 0) " stroke-linecap="round" />
	<path d="M 63.764 26.934 c 3.091 -7.812 -2.574 -17.313 -8.601 -20.154 c -9.155 -3.508 -17.274 1.024 -24.58 6.162 c 3.348 0.401 6.186 4.225 8.205 7.57 c 1.705 2.826 3.638 6.029 6.897 8.135 C 51.635 32.303 58.036 31.116 63.764 26.934 z" style="stroke: none; stroke-width: 1; stroke-dasharray: none; stroke-linecap: butt; stroke-linejoin: miter; stroke-miterlimit: 10; fill: rgb(128,178,43); fill-rule: nonzero; opacity: 1;" transform=" matrix(1 0 0 1 0 0) " stroke-linecap="round" />
	<path d="M 36.044 84.46 C 16.169 84.46 0 68.291 0 48.416 c 0 -5.18 1.076 -10.181 3.198 -14.862 c 1.099 -2.425 2.472 -4.734 4.082 -6.862 c 0.538 -0.712 1.109 -1.41 1.695 -2.076 c 2.297 -2.612 4.953 -4.873 7.892 -6.724 c 0.473 -0.298 1.098 -0.156 1.394 0.317 c 0.298 0.473 0.156 1.097 -0.317 1.394 c -2.775 1.746 -5.282 3.882 -7.451 6.348 C 9.94 26.58 9.402 27.24 8.893 27.912 c -1.52 2.008 -2.816 4.187 -3.853 6.476 c -2.002 4.418 -3.017 9.138 -3.017 14.028 c 0 18.759 15.262 34.022 34.021 34.022 c 9.501 0 18.314 -3.818 24.817 -10.75 c 5.935 -6.326 9.204 -14.591 9.204 -23.271 c 0 -6.117 -1.796 -12.182 -5.492 -18.543 c -2.968 -5.11 -8.077 -7.907 -11.84 -9.353 c -0.521 -0.2 -0.782 -0.786 -0.582 -1.307 c 0.201 -0.521 0.789 -0.782 1.307 -0.581 c 4.068 1.564 9.6 4.607 12.864 10.226 c 3.879 6.678 5.765 13.076 5.765 19.559 c 0 9.196 -3.463 17.952 -9.751 24.656 C 55.546 80.309 45.963 84.46 36.044 84.46 z" style="stroke: none; stroke-width: 1; stroke-dasharray: none; stroke-linecap: butt; stroke-linejoin: miter; stroke-miterlimit: 10; fill: rgb(105,147,33); fill-rule: nonzero; opacity: 1;" transform=" matrix(1 0 0 1 0 0) " stroke-linecap="round" />
	<path d="M 69.375 37.24 c -1.922 -4.856 1.6 -10.762 5.346 -12.528 c 5.691 -2.181 10.738 0.636 15.279 3.831 c -2.081 0.249 -3.845 2.626 -5.1 4.706 c -1.06 1.757 -2.261 3.748 -4.287 5.057 C 76.914 40.578 72.935 39.84 69.375 37.24 z" style="stroke: none; stroke-width: 1; stroke-dasharray: none; stroke-linecap: butt; stroke-linejoin: miter; stroke-miterlimit: 10; fill: rgb(128,178,43); fill-rule: nonzero; opacity: 1;" transform=" matrix(1 0 0 1 0 0) " stroke-linecap="round" />
	<path d="M 69.373 38.252 c -0.215 0 -0.433 -0.069 -0.617 -0.211 c -0.441 -0.341 -0.523 -0.976 -0.183 -1.418 c 1.558 -2.019 3.725 -3.815 6.44 -5.339 c 0.485 -0.274 1.103 -0.1 1.377 0.387 c 0.274 0.487 0.1 1.104 -0.387 1.377 c -2.476 1.39 -4.437 3.009 -5.827 4.811 C 69.976 38.116 69.677 38.252 69.373 38.252 z" style="stroke: none; stroke-width: 1; stroke-dasharray: none; stroke-linecap: butt; stroke-linejoin: miter; stroke-miterlimit: 10; fill: rgb(105,147,33); fill-rule: nonzero; opacity: 1;" transform=" matrix(1 0 0 1 0 0) " stroke-linecap="round" />
</g>
</svg>